<?xml version="1.0" encoding="UTF-8"?>
<svg xmlns="http://www.w3.org/2000/svg" viewBox="-370 -2370 1700 2730" width="1530" height="2457" font-family="Arial,Helvetica,sans-serif">
<rect x="-370" y="-2370" width="1700" height="2730" fill="#fff"/>
<text x="-360" y="-2314" font-size="28.6" font-weight="bold">Stůl balení LIDL - prototyp II (z výkresu) - POHLED ZLEVA (osa Z doprava = k přední straně, Y nahoru) - kóty NAMĚŘENÉ z Box3 reálné GLB geometrie (mřížka 100 mm, čísla v mm)</text>
<line x1="-300" y1="-2369.999976158142" x2="-300" y2="360" stroke="#d5dbe1" stroke-width="0.8"/>
<line x1="-200" y1="-2369.999976158142" x2="-200" y2="360" stroke="#d5dbe1" stroke-width="0.8"/>
<line x1="-100" y1="-2369.999976158142" x2="-100" y2="360" stroke="#d5dbe1" stroke-width="0.8"/>
<line x1="0" y1="-2369.999976158142" x2="0" y2="360" stroke="#9aa5b1" stroke-width="1.4"/><text x="4" y="-2343.999976158142" font-size="20.8" fill="#667">0</text>
<line x1="100" y1="-2369.999976158142" x2="100" y2="360" stroke="#d5dbe1" stroke-width="0.8"/>
<line x1="200" y1="-2369.999976158142" x2="200" y2="360" stroke="#d5dbe1" stroke-width="0.8"/>
<line x1="300" y1="-2369.999976158142" x2="300" y2="360" stroke="#d5dbe1" stroke-width="0.8"/>
<line x1="400" y1="-2369.999976158142" x2="400" y2="360" stroke="#d5dbe1" stroke-width="0.8"/>
<line x1="500" y1="-2369.999976158142" x2="500" y2="360" stroke="#9aa5b1" stroke-width="1.4"/><text x="504" y="-2343.999976158142" font-size="20.8" fill="#667">500</text>
<line x1="600" y1="-2369.999976158142" x2="600" y2="360" stroke="#d5dbe1" stroke-width="0.8"/>
<line x1="700" y1="-2369.999976158142" x2="700" y2="360" stroke="#d5dbe1" stroke-width="0.8"/>
<line x1="800" y1="-2369.999976158142" x2="800" y2="360" stroke="#d5dbe1" stroke-width="0.8"/>
<line x1="900" y1="-2369.999976158142" x2="900" y2="360" stroke="#d5dbe1" stroke-width="0.8"/>
<line x1="1000" y1="-2369.999976158142" x2="1000" y2="360" stroke="#9aa5b1" stroke-width="1.4"/><text x="1004" y="-2343.999976158142" font-size="20.8" fill="#667">1000</text>
<line x1="1100" y1="-2369.999976158142" x2="1100" y2="360" stroke="#d5dbe1" stroke-width="0.8"/>
<line x1="1200" y1="-2369.999976158142" x2="1200" y2="360" stroke="#d5dbe1" stroke-width="0.8"/>
<line x1="1300" y1="-2369.999976158142" x2="1300" y2="360" stroke="#d5dbe1" stroke-width="0.8"/>
<line x1="-370" y1="-2300" x2="1330" y2="-2300" stroke="#d5dbe1" stroke-width="0.8"/>
<line x1="-370" y1="-2200" x2="1330" y2="-2200" stroke="#d5dbe1" stroke-width="0.8"/>
<line x1="-370" y1="-2100" x2="1330" y2="-2100" stroke="#d5dbe1" stroke-width="0.8"/>
<line x1="-370" y1="-2000" x2="1330" y2="-2000" stroke="#9aa5b1" stroke-width="1.4"/><text x="-366" y="-2004" font-size="20.8" fill="#667">2000</text>
<line x1="-370" y1="-1900" x2="1330" y2="-1900" stroke="#d5dbe1" stroke-width="0.8"/>
<line x1="-370" y1="-1800" x2="1330" y2="-1800" stroke="#d5dbe1" stroke-width="0.8"/>
<line x1="-370" y1="-1700" x2="1330" y2="-1700" stroke="#d5dbe1" stroke-width="0.8"/>
<line x1="-370" y1="-1600" x2="1330" y2="-1600" stroke="#d5dbe1" stroke-width="0.8"/>
<line x1="-370" y1="-1500" x2="1330" y2="-1500" stroke="#9aa5b1" stroke-width="1.4"/><text x="-366" y="-1504" font-size="20.8" fill="#667">1500</text>
<line x1="-370" y1="-1400" x2="1330" y2="-1400" stroke="#d5dbe1" stroke-width="0.8"/>
<line x1="-370" y1="-1300" x2="1330" y2="-1300" stroke="#d5dbe1" stroke-width="0.8"/>
<line x1="-370" y1="-1200" x2="1330" y2="-1200" stroke="#d5dbe1" stroke-width="0.8"/>
<line x1="-370" y1="-1100" x2="1330" y2="-1100" stroke="#d5dbe1" stroke-width="0.8"/>
<line x1="-370" y1="-1000" x2="1330" y2="-1000" stroke="#9aa5b1" stroke-width="1.4"/><text x="-366" y="-1004" font-size="20.8" fill="#667">1000</text>
<line x1="-370" y1="-900" x2="1330" y2="-900" stroke="#d5dbe1" stroke-width="0.8"/>
<line x1="-370" y1="-800" x2="1330" y2="-800" stroke="#d5dbe1" stroke-width="0.8"/>
<line x1="-370" y1="-700" x2="1330" y2="-700" stroke="#d5dbe1" stroke-width="0.8"/>
<line x1="-370" y1="-600" x2="1330" y2="-600" stroke="#d5dbe1" stroke-width="0.8"/>
<line x1="-370" y1="-500" x2="1330" y2="-500" stroke="#9aa5b1" stroke-width="1.4"/><text x="-366" y="-504" font-size="20.8" fill="#667">500</text>
<line x1="-370" y1="-400" x2="1330" y2="-400" stroke="#d5dbe1" stroke-width="0.8"/>
<line x1="-370" y1="-300" x2="1330" y2="-300" stroke="#d5dbe1" stroke-width="0.8"/>
<line x1="-370" y1="-200" x2="1330" y2="-200" stroke="#d5dbe1" stroke-width="0.8"/>
<line x1="-370" y1="-100" x2="1330" y2="-100" stroke="#d5dbe1" stroke-width="0.8"/>
<line x1="-370" y1="0" x2="1330" y2="0" stroke="#9aa5b1" stroke-width="1.4"/><text x="-366" y="-4" font-size="20.8" fill="#667">0</text>
<line x1="-370" y1="100" x2="1330" y2="100" stroke="#d5dbe1" stroke-width="0.8"/>
<line x1="-370" y1="200" x2="1330" y2="200" stroke="#d5dbe1" stroke-width="0.8"/>
<line x1="-370" y1="300" x2="1330" y2="300" stroke="#d5dbe1" stroke-width="0.8"/>
<rect x="12" y="-754" width="782" height="24" fill="#e8833a" fill-opacity="0.45" stroke="#222" stroke-width="1.2"><title>stulbal-valecka-draha-1</title></rect>
<rect x="12" y="-754" width="782" height="24" fill="#e8833a" fill-opacity="0.45" stroke="#222" stroke-width="1.2"><title>stulbal-valecka-draha-2</title></rect>
<rect x="12" y="-754" width="782" height="24" fill="#e8833a" fill-opacity="0.45" stroke="#222" stroke-width="1.2"><title>stulbal-valecka-draha-3</title></rect>
<rect x="12" y="-754" width="782" height="24" fill="#e8833a" fill-opacity="0.45" stroke="#222" stroke-width="1.2"><title>stulbal-valecka-draha-4</title></rect>
<rect x="12" y="-754" width="782" height="24" fill="#e8833a" fill-opacity="0.45" stroke="#222" stroke-width="1.2"><title>stulbal-valecka-draha-5</title></rect>
<rect x="12" y="-754" width="782" height="24" fill="#e8833a" fill-opacity="0.45" stroke="#222" stroke-width="1.2"><title>stulbal-valecka-draha-6</title></rect>
<rect x="12" y="-754" width="782" height="24" fill="#e8833a" fill-opacity="0.45" stroke="#222" stroke-width="1.2"><title>stulbal-valecka-draha-7</title></rect>
<rect x="12" y="-754" width="782" height="24" fill="#e8833a" fill-opacity="0.45" stroke="#222" stroke-width="1.2"><title>stulbal-valecka-draha-8</title></rect>
<rect x="12" y="-754" width="782" height="24" fill="#e8833a" fill-opacity="0.45" stroke="#222" stroke-width="1.2"><title>stulbal-valecka-draha-9</title></rect>
<rect x="12" y="-754" width="782" height="24" fill="#e8833a" fill-opacity="0.45" stroke="#222" stroke-width="1.2"><title>stulbal-valecka-draha-10</title></rect>
<rect x="12" y="-754" width="782" height="24" fill="#e8833a" fill-opacity="0.45" stroke="#222" stroke-width="1.2"><title>stulbal-valecka-draha-11</title></rect>
<rect x="794" y="-850" width="6" height="120" fill="#b8bec5" fill-opacity="0.45" stroke="#222" stroke-width="1.2"><title>stulbal-celni-desticka</title></rect>
<rect x="610" y="-730" width="40" height="320" fill="#d6504f" fill-opacity="0.45" stroke="#222" stroke-width="1.2"><title>stulbal-kovani-L</title></rect>
<rect x="610" y="-730" width="40" height="320" fill="#d6504f" fill-opacity="0.45" stroke="#222" stroke-width="1.2"><title>stulbal-kovani-P</title></rect>
<rect x="80" y="-1445" width="16" height="40" fill="#3f8fd2" fill-opacity="0.45" stroke="#222" stroke-width="1.2"><title>stulbal-rameno-podstava</title></rect>
<rect x="96" y="-1440" width="244" height="20" fill="#3f8fd2" fill-opacity="0.45" stroke="#222" stroke-width="1.2"><title>stulbal-rameno-vodorovne</title></rect>
<rect x="340" y="-1480" width="6" height="100" fill="#3f8fd2" fill-opacity="0.45" stroke="#222" stroke-width="1.2"><title>stulbal-rameno-hlava</title></rect>
<rect x="0" y="-1200" width="60" height="150" fill="#8f63cf" fill-opacity="0.45" stroke="#222" stroke-width="1.2"><title>stulbal-vypinac</title></rect>
<rect x="0" y="-1050" width="800" height="18" fill="#9aa0a6" fill-opacity="0.55" stroke="#222" stroke-width="1.2"><title>stulbal-police-1</title></rect>
<rect x="0" y="-1218" width="800" height="18" fill="#9aa0a6" fill-opacity="0.55" stroke="#222" stroke-width="1.2"><title>stulbal-police-2</title></rect>
<rect x="0" y="-1386" width="800" height="18" fill="#9aa0a6" fill-opacity="0.55" stroke="#222" stroke-width="1.2"><title>stulbal-police-3</title></rect>
<rect x="0" y="-592" width="800" height="18" fill="#9aa0a6" fill-opacity="0.55" stroke="#222" stroke-width="1.2"><title>stulbal-police-S</title></rect>
<rect x="0" y="-104" width="650" height="18" fill="#9aa0a6" fill-opacity="0.55" stroke="#222" stroke-width="1.2"><title>stulbal-deska-spodni</title></rect>
<rect x="0" y="-800" width="800" height="18" fill="#9aa0a6" fill-opacity="0.55" stroke="#222" stroke-width="1.2"><title>stulbal-deska-stolu</title></rect>
<rect x="0" y="-2060" width="40" height="2014" fill="#c3c8ce" fill-opacity="0.7" stroke="#222" stroke-width="1.2"><title>stulbal-noha-AZ</title></rect>
<rect x="0" y="-2060" width="40" height="2014" fill="#c3c8ce" fill-opacity="0.7" stroke="#222" stroke-width="1.2"><title>stulbal-noha-BZ</title></rect>
<rect x="0" y="-782" width="40" height="736" fill="#c3c8ce" fill-opacity="0.7" stroke="#222" stroke-width="1.2"><title>stulbal-noha-CZ</title></rect>
<rect x="0" y="-2060" width="40" height="2014" fill="#c3c8ce" fill-opacity="0.7" stroke="#222" stroke-width="1.2"><title>stulbal-noha-DZ</title></rect>
<rect x="760" y="-1490" width="40" height="1444" fill="#c3c8ce" fill-opacity="0.7" stroke="#222" stroke-width="1.2"><title>stulbal-noha-AP</title></rect>
<rect x="760" y="-1490" width="40" height="1444" fill="#c3c8ce" fill-opacity="0.7" stroke="#222" stroke-width="1.2"><title>stulbal-noha-BP</title></rect>
<rect x="760" y="-782" width="40" height="736" fill="#c3c8ce" fill-opacity="0.7" stroke="#222" stroke-width="1.2"><title>stulbal-noha-CP</title></rect>
<rect x="760" y="-782" width="40" height="736" fill="#c3c8ce" fill-opacity="0.7" stroke="#222" stroke-width="1.2"><title>stulbal-noha-DP</title></rect>
<rect x="0" y="-160" width="40" height="40" fill="#c3c8ce" fill-opacity="0.7" stroke="#222" stroke-width="1.2"><title>stulbal-LB-zadni</title></rect>
<rect x="760" y="-160" width="40" height="40" fill="#c3c8ce" fill-opacity="0.7" stroke="#222" stroke-width="1.2"><title>stulbal-LB-predni</title></rect>
<rect x="40" y="-160" width="720" height="40" fill="#c3c8ce" fill-opacity="0.7" stroke="#222" stroke-width="1.2"><title>stulbal-LB-leva</title></rect>
<rect x="40" y="-160" width="720" height="40" fill="#c3c8ce" fill-opacity="0.7" stroke="#222" stroke-width="1.2"><title>stulbal-LB-prava</title></rect>
<rect x="0" y="-782" width="40" height="40" fill="#c3c8ce" fill-opacity="0.7" stroke="#222" stroke-width="1.2"><title>stulbal-LM-zadni</title></rect>
<rect x="760" y="-782" width="40" height="40" fill="#c3c8ce" fill-opacity="0.7" stroke="#222" stroke-width="1.2"><title>stulbal-LM-predni</title></rect>
<rect x="40" y="-782" width="720" height="40" fill="#c3c8ce" fill-opacity="0.7" stroke="#222" stroke-width="1.2"><title>stulbal-LM-leva</title></rect>
<rect x="40" y="-782" width="720" height="40" fill="#c3c8ce" fill-opacity="0.7" stroke="#222" stroke-width="1.2"><title>stulbal-LM-prava</title></rect>
<rect x="0" y="-1490" width="40" height="40" fill="#c3c8ce" fill-opacity="0.7" stroke="#222" stroke-width="1.2"><title>stulbal-LT-zadni</title></rect>
<rect x="760" y="-1490" width="40" height="40" fill="#c3c8ce" fill-opacity="0.7" stroke="#222" stroke-width="1.2"><title>stulbal-LT-predni</title></rect>
<rect x="40" y="-1490" width="720" height="40" fill="#c3c8ce" fill-opacity="0.7" stroke="#222" stroke-width="1.2"><title>stulbal-LT-leva</title></rect>
<rect x="40" y="-1490" width="720" height="40" fill="#c3c8ce" fill-opacity="0.7" stroke="#222" stroke-width="1.2"><title>stulbal-LT-prava</title></rect>
<rect x="40" y="-86" width="720" height="40" fill="#c3c8ce" fill-opacity="0.7" stroke="#222" stroke-width="1.2"><title>stulbal-MB-bok-B</title></rect>
<rect x="40" y="-86" width="720" height="40" fill="#c3c8ce" fill-opacity="0.7" stroke="#222" stroke-width="1.2"><title>stulbal-MB-bok-C</title></rect>
<rect x="0" y="-86" width="40" height="40" fill="#c3c8ce" fill-opacity="0.7" stroke="#222" stroke-width="1.2"><title>stulbal-MB-zadni</title></rect>
<rect x="610" y="-86" width="40" height="40" fill="#c3c8ce" fill-opacity="0.7" stroke="#222" stroke-width="1.2"><title>stulbal-MB-kolejnice</title></rect>
<rect x="0" y="-782" width="40" height="40" fill="#c3c8ce" fill-opacity="0.7" stroke="#222" stroke-width="1.2"><title>stulbal-MM-zadni</title></rect>
<rect x="760" y="-782" width="40" height="40" fill="#c3c8ce" fill-opacity="0.7" stroke="#222" stroke-width="1.2"><title>stulbal-MM-predni</title></rect>
<rect x="40" y="-782" width="720" height="40" fill="#c3c8ce" fill-opacity="0.7" stroke="#222" stroke-width="1.2"><title>stulbal-MM-prava</title></rect>
<rect x="0" y="-160" width="40" height="40" fill="#c3c8ce" fill-opacity="0.7" stroke="#222" stroke-width="1.2"><title>stulbal-R0-zadni</title></rect>
<rect x="760" y="-160" width="40" height="40" fill="#c3c8ce" fill-opacity="0.7" stroke="#222" stroke-width="1.2"><title>stulbal-R0-predni</title></rect>
<rect x="40" y="-160" width="720" height="40" fill="#c3c8ce" fill-opacity="0.7" stroke="#222" stroke-width="1.2"><title>stulbal-R0-prava</title></rect>
<rect x="40" y="-410" width="720" height="40" fill="#c3c8ce" fill-opacity="0.7" stroke="#222" stroke-width="1.2"><title>stulbal-R1-bok-C</title></rect>
<rect x="40" y="-410" width="720" height="40" fill="#c3c8ce" fill-opacity="0.7" stroke="#222" stroke-width="1.2"><title>stulbal-R1-bok-D</title></rect>
<rect x="760" y="-410" width="40" height="40" fill="#c3c8ce" fill-opacity="0.7" stroke="#222" stroke-width="1.2"><title>stulbal-R1-predni</title></rect>
<rect x="610" y="-410" width="40" height="40" fill="#c3c8ce" fill-opacity="0.7" stroke="#222" stroke-width="1.2"><title>stulbal-R1-kolejnice</title></rect>
<rect x="0" y="-730" width="40" height="40" fill="#c3c8ce" fill-opacity="0.7" stroke="#222" stroke-width="1.2"><title>stulbal-R2-zadni</title></rect>
<rect x="760" y="-730" width="40" height="40" fill="#c3c8ce" fill-opacity="0.7" stroke="#222" stroke-width="1.2"><title>stulbal-R2-predni</title></rect>
<rect x="40" y="-782" width="720" height="40" fill="#c3c8ce" fill-opacity="0.7" stroke="#222" stroke-width="1.2"><title>stulbal-D-bok-stul</title></rect>
<rect x="0" y="-2100" width="600" height="40" fill="#c3c8ce" fill-opacity="0.7" stroke="#222" stroke-width="1.2"><title>stulbal-horni-bok-L</title></rect>
<rect x="0" y="-2100" width="600" height="40" fill="#c3c8ce" fill-opacity="0.7" stroke="#222" stroke-width="1.2"><title>stulbal-horni-bok-P</title></rect>
<rect x="0" y="-2100" width="40" height="40" fill="#c3c8ce" fill-opacity="0.7" stroke="#222" stroke-width="1.2"><title>stulbal-horni-zadni</title></rect>
<rect x="560" y="-2100" width="40" height="40" fill="#c3c8ce" fill-opacity="0.7" stroke="#222" stroke-width="1.2"><title>stulbal-horni-predni</title></rect>
<rect x="0" y="-1490" width="40" height="40" fill="#c3c8ce" fill-opacity="0.7" stroke="#222" stroke-width="1.2"><title>stulbal-zed-spodni</title></rect>
<rect x="0" y="-1650" width="40" height="40" fill="#c3c8ce" fill-opacity="0.7" stroke="#222" stroke-width="1.2"><title>stulbal-zed-horni</title></rect>
<rect x="40" y="-1650" width="40" height="200" fill="#c3c8ce" fill-opacity="0.7" stroke="#222" stroke-width="1.2"><title>stulbal-posuvny-1</title></rect>
<rect x="40" y="-1650" width="40" height="200" fill="#c3c8ce" fill-opacity="0.7" stroke="#222" stroke-width="1.2"><title>stulbal-posuvny-2</title></rect>
<rect x="40" y="-1650" width="40" height="500" fill="#c3c8ce" fill-opacity="0.7" stroke="#222" stroke-width="1.2"><title>stulbal-rameno-sloup</title></rect>
<rect x="1.5" y="-1032" width="37" height="37" fill="#9aa3b0" fill-opacity="0.7" stroke="#222" stroke-width="1.2"><title>stulbal-drzak-police-1-noha-AZ</title></rect>
<rect x="1.5" y="-1032" width="37" height="37" fill="#9aa3b0" fill-opacity="0.7" stroke="#222" stroke-width="1.2"><title>stulbal-drzak-police-1-noha-BZ</title></rect>
<rect x="761.5" y="-1032" width="37" height="37" fill="#9aa3b0" fill-opacity="0.7" stroke="#222" stroke-width="1.2"><title>stulbal-drzak-police-1-noha-AP</title></rect>
<rect x="761.5" y="-1032" width="37" height="37" fill="#9aa3b0" fill-opacity="0.7" stroke="#222" stroke-width="1.2"><title>stulbal-drzak-police-1-noha-BP</title></rect>
<rect x="1.5" y="-1200" width="37" height="37" fill="#9aa3b0" fill-opacity="0.7" stroke="#222" stroke-width="1.2"><title>stulbal-drzak-police-2-noha-AZ</title></rect>
<rect x="1.5" y="-1200" width="37" height="37" fill="#9aa3b0" fill-opacity="0.7" stroke="#222" stroke-width="1.2"><title>stulbal-drzak-police-2-noha-BZ</title></rect>
<rect x="761.5" y="-1200" width="37" height="37" fill="#9aa3b0" fill-opacity="0.7" stroke="#222" stroke-width="1.2"><title>stulbal-drzak-police-2-noha-AP</title></rect>
<rect x="761.5" y="-1200" width="37" height="37" fill="#9aa3b0" fill-opacity="0.7" stroke="#222" stroke-width="1.2"><title>stulbal-drzak-police-2-noha-BP</title></rect>
<rect x="1.5" y="-1368" width="37" height="37" fill="#9aa3b0" fill-opacity="0.7" stroke="#222" stroke-width="1.2"><title>stulbal-drzak-police-3-noha-AZ</title></rect>
<rect x="1.5" y="-1368" width="37" height="37" fill="#9aa3b0" fill-opacity="0.7" stroke="#222" stroke-width="1.2"><title>stulbal-drzak-police-3-noha-BZ</title></rect>
<rect x="761.5" y="-1368" width="37" height="37" fill="#9aa3b0" fill-opacity="0.7" stroke="#222" stroke-width="1.2"><title>stulbal-drzak-police-3-noha-AP</title></rect>
<rect x="761.5" y="-1368" width="37" height="37" fill="#9aa3b0" fill-opacity="0.7" stroke="#222" stroke-width="1.2"><title>stulbal-drzak-police-3-noha-BP</title></rect>
<rect x="1.5" y="-574" width="37" height="37" fill="#9aa3b0" fill-opacity="0.7" stroke="#222" stroke-width="1.2"><title>stulbal-drzak-police-S-noha-BZ</title></rect>
<rect x="1.5" y="-574" width="37" height="37" fill="#9aa3b0" fill-opacity="0.7" stroke="#222" stroke-width="1.2"><title>stulbal-drzak-police-S-noha-CZ</title></rect>
<rect x="761.5" y="-574" width="37" height="37" fill="#9aa3b0" fill-opacity="0.7" stroke="#222" stroke-width="1.2"><title>stulbal-drzak-police-S-noha-BP</title></rect>
<rect x="761.5" y="-574" width="37" height="37" fill="#9aa3b0" fill-opacity="0.7" stroke="#222" stroke-width="1.2"><title>stulbal-drzak-police-S-noha-CP</title></rect>
<rect x="723" y="-745.43" width="40.43" height="40.43" fill="#2d3139" fill-opacity="0.7" stroke="#222" stroke-width="1.2"><title>stulbal-spojka-01-D-bok-stul-noha-DP</title></rect>
<rect x="36.57" y="-745.43" width="40.43" height="40.43" fill="#2d3139" fill-opacity="0.7" stroke="#222" stroke-width="1.2"><title>stulbal-spojka-02-D-bok-stul-noha-DZ</title></rect>
<rect x="523" y="-2098.5" width="40.43" height="37" fill="#2d3139" fill-opacity="0.7" stroke="#222" stroke-width="1.2"><title>stulbal-spojka-03-horni-predni-horni-bok-L</title></rect>
<rect x="523" y="-2098.5" width="40.43" height="37" fill="#2d3139" fill-opacity="0.7" stroke="#222" stroke-width="1.2"><title>stulbal-spojka-04-horni-predni-horni-bok-P</title></rect>
<rect x="36.57" y="-2098.5" width="40.43" height="37" fill="#2d3139" fill-opacity="0.7" stroke="#222" stroke-width="1.2"><title>stulbal-spojka-05-horni-zadni-horni-bok-L</title></rect>
<rect x="36.57" y="-2098.5" width="40.43" height="37" fill="#2d3139" fill-opacity="0.7" stroke="#222" stroke-width="1.2"><title>stulbal-spojka-06-horni-zadni-horni-bok-P</title></rect>
<rect x="723" y="-123.43" width="40.43" height="40.43" fill="#2d3139" fill-opacity="0.7" stroke="#222" stroke-width="1.2"><title>stulbal-spojka-07-LB-leva-noha-AP</title></rect>
<rect x="36.57" y="-123.43" width="40.43" height="40.43" fill="#2d3139" fill-opacity="0.7" stroke="#222" stroke-width="1.2"><title>stulbal-spojka-08-LB-leva-noha-AZ</title></rect>
<rect x="723" y="-197" width="40.43" height="40.43" fill="#2d3139" fill-opacity="0.7" stroke="#222" stroke-width="1.2"><title>stulbal-spojka-09-LB-prava-noha-BP</title></rect>
<rect x="36.57" y="-197" width="40.43" height="40.43" fill="#2d3139" fill-opacity="0.7" stroke="#222" stroke-width="1.2"><title>stulbal-spojka-10-LB-prava-noha-BZ</title></rect>
<rect x="761.5" y="-123.43" width="37" height="40.43" fill="#2d3139" fill-opacity="0.7" stroke="#222" stroke-width="1.2"><title>stulbal-spojka-11-LB-predni-noha-AP</title></rect>
<rect x="761.5" y="-123.43" width="37" height="40.43" fill="#2d3139" fill-opacity="0.7" stroke="#222" stroke-width="1.2"><title>stulbal-spojka-12-LB-predni-noha-BP</title></rect>
<rect x="1.5" y="-123.43" width="37" height="40.43" fill="#2d3139" fill-opacity="0.7" stroke="#222" stroke-width="1.2"><title>stulbal-spojka-13-LB-zadni-noha-AZ</title></rect>
<rect x="1.5" y="-123.43" width="37" height="40.43" fill="#2d3139" fill-opacity="0.7" stroke="#222" stroke-width="1.2"><title>stulbal-spojka-14-LB-zadni-noha-BZ</title></rect>
<rect x="723" y="-745.43" width="40.43" height="40.43" fill="#2d3139" fill-opacity="0.7" stroke="#222" stroke-width="1.2"><title>stulbal-spojka-15-LM-leva-noha-AP</title></rect>
<rect x="36.57" y="-745.43" width="40.43" height="40.43" fill="#2d3139" fill-opacity="0.7" stroke="#222" stroke-width="1.2"><title>stulbal-spojka-16-LM-leva-noha-AZ</title></rect>
<rect x="723" y="-745.43" width="40.43" height="40.43" fill="#2d3139" fill-opacity="0.7" stroke="#222" stroke-width="1.2"><title>stulbal-spojka-17-LM-prava-noha-BP</title></rect>
<rect x="36.57" y="-745.43" width="40.43" height="40.43" fill="#2d3139" fill-opacity="0.7" stroke="#222" stroke-width="1.2"><title>stulbal-spojka-18-LM-prava-noha-BZ</title></rect>
<rect x="761.5" y="-745.43" width="37" height="40.43" fill="#2d3139" fill-opacity="0.7" stroke="#222" stroke-width="1.2"><title>stulbal-spojka-19-LM-predni-noha-AP</title></rect>
<rect x="761.5" y="-745.43" width="37" height="40.43" fill="#2d3139" fill-opacity="0.7" stroke="#222" stroke-width="1.2"><title>stulbal-spojka-20-LM-predni-noha-BP</title></rect>
<rect x="1.5" y="-745.43" width="37" height="40.43" fill="#2d3139" fill-opacity="0.7" stroke="#222" stroke-width="1.2"><title>stulbal-spojka-21-LM-zadni-noha-AZ</title></rect>
<rect x="1.5" y="-745.43" width="37" height="40.43" fill="#2d3139" fill-opacity="0.7" stroke="#222" stroke-width="1.2"><title>stulbal-spojka-22-LM-zadni-noha-BZ</title></rect>
<rect x="723" y="-1453.43" width="40.43" height="40.43" fill="#2d3139" fill-opacity="0.7" stroke="#222" stroke-width="1.2"><title>stulbal-spojka-23-LT-leva-noha-AP</title></rect>
<rect x="36.57" y="-1453.43" width="40.43" height="40.43" fill="#2d3139" fill-opacity="0.7" stroke="#222" stroke-width="1.2"><title>stulbal-spojka-24-LT-leva-noha-AZ</title></rect>
<rect x="723" y="-1453.43" width="40.43" height="40.43" fill="#2d3139" fill-opacity="0.7" stroke="#222" stroke-width="1.2"><title>stulbal-spojka-25-LT-prava-noha-BP</title></rect>
<rect x="36.57" y="-1453.43" width="40.43" height="40.43" fill="#2d3139" fill-opacity="0.7" stroke="#222" stroke-width="1.2"><title>stulbal-spojka-26-LT-prava-noha-BZ</title></rect>
<rect x="761.5" y="-1453.43" width="37" height="40.43" fill="#2d3139" fill-opacity="0.7" stroke="#222" stroke-width="1.2"><title>stulbal-spojka-27-LT-predni-noha-AP</title></rect>
<rect x="761.5" y="-1453.43" width="37" height="40.43" fill="#2d3139" fill-opacity="0.7" stroke="#222" stroke-width="1.2"><title>stulbal-spojka-28-LT-predni-noha-BP</title></rect>
<rect x="1.5" y="-1453.43" width="37" height="40.43" fill="#2d3139" fill-opacity="0.7" stroke="#222" stroke-width="1.2"><title>stulbal-spojka-29-LT-zadni-noha-AZ</title></rect>
<rect x="1.5" y="-1453.43" width="37" height="40.43" fill="#2d3139" fill-opacity="0.7" stroke="#222" stroke-width="1.2"><title>stulbal-spojka-30-LT-zadni-noha-BZ</title></rect>
<rect x="723" y="-123" width="40.43" height="40.43" fill="#2d3139" fill-opacity="0.7" stroke="#222" stroke-width="1.2"><title>stulbal-spojka-31-MB-bok-C-noha-CP</title></rect>
<rect x="36.57" y="-123" width="40.43" height="40.43" fill="#2d3139" fill-opacity="0.7" stroke="#222" stroke-width="1.2"><title>stulbal-spojka-32-MB-bok-C-noha-CZ</title></rect>
<rect x="646.57" y="-84.5" width="40.43" height="37" fill="#2d3139" fill-opacity="0.7" stroke="#222" stroke-width="1.2"><title>stulbal-spojka-33-MB-kolejnice-MB-bok-B</title></rect>
<rect x="646.57" y="-84.5" width="40.43" height="37" fill="#2d3139" fill-opacity="0.7" stroke="#222" stroke-width="1.2"><title>stulbal-spojka-34-MB-kolejnice-MB-bok-C</title></rect>
<rect x="723" y="-745.43" width="40.43" height="40.43" fill="#2d3139" fill-opacity="0.7" stroke="#222" stroke-width="1.2"><title>stulbal-spojka-35-MM-prava-noha-CP</title></rect>
<rect x="36.57" y="-745.43" width="40.43" height="40.43" fill="#2d3139" fill-opacity="0.7" stroke="#222" stroke-width="1.2"><title>stulbal-spojka-36-MM-prava-noha-CZ</title></rect>
<rect x="761.5" y="-745.43" width="37" height="40.43" fill="#2d3139" fill-opacity="0.7" stroke="#222" stroke-width="1.2"><title>stulbal-spojka-37-MM-predni-noha-BP</title></rect>
<rect x="761.5" y="-745.43" width="37" height="40.43" fill="#2d3139" fill-opacity="0.7" stroke="#222" stroke-width="1.2"><title>stulbal-spojka-38-MM-predni-noha-CP</title></rect>
<rect x="1.5" y="-745.43" width="37" height="40.43" fill="#2d3139" fill-opacity="0.7" stroke="#222" stroke-width="1.2"><title>stulbal-spojka-39-MM-zadni-noha-BZ</title></rect>
<rect x="1.5" y="-745.43" width="37" height="40.43" fill="#2d3139" fill-opacity="0.7" stroke="#222" stroke-width="1.2"><title>stulbal-spojka-40-MM-zadni-noha-CZ</title></rect>
<rect x="36.57" y="-2063.43" width="40.43" height="40.43" fill="#2d3139" fill-opacity="0.7" stroke="#222" stroke-width="1.2"><title>stulbal-spojka-41-noha-AZ-horni-bok-L</title></rect>
<rect x="1.5" y="-2063.43" width="37" height="40.43" fill="#2d3139" fill-opacity="0.7" stroke="#222" stroke-width="1.2"><title>stulbal-spojka-42-noha-BZ-horni-zadni</title></rect>
<rect x="36.57" y="-2063.43" width="40.43" height="40.43" fill="#2d3139" fill-opacity="0.7" stroke="#222" stroke-width="1.2"><title>stulbal-spojka-43-noha-DZ-horni-bok-P</title></rect>
<rect x="723" y="-123.43" width="40.43" height="40.43" fill="#2d3139" fill-opacity="0.7" stroke="#222" stroke-width="1.2"><title>stulbal-spojka-44-R0-prava-noha-DP</title></rect>
<rect x="36.57" y="-123.43" width="40.43" height="40.43" fill="#2d3139" fill-opacity="0.7" stroke="#222" stroke-width="1.2"><title>stulbal-spojka-45-R0-prava-noha-DZ</title></rect>
<rect x="761.5" y="-123.43" width="37" height="40.43" fill="#2d3139" fill-opacity="0.7" stroke="#222" stroke-width="1.2"><title>stulbal-spojka-46-R0-predni-noha-CP</title></rect>
<rect x="761.5" y="-123.43" width="37" height="40.43" fill="#2d3139" fill-opacity="0.7" stroke="#222" stroke-width="1.2"><title>stulbal-spojka-47-R0-predni-noha-DP</title></rect>
<rect x="1.5" y="-123.43" width="37" height="40.43" fill="#2d3139" fill-opacity="0.7" stroke="#222" stroke-width="1.2"><title>stulbal-spojka-48-R0-zadni-noha-CZ</title></rect>
<rect x="1.5" y="-123.43" width="37" height="40.43" fill="#2d3139" fill-opacity="0.7" stroke="#222" stroke-width="1.2"><title>stulbal-spojka-49-R0-zadni-noha-DZ</title></rect>
<rect x="723" y="-373.43" width="40.43" height="40.43" fill="#2d3139" fill-opacity="0.7" stroke="#222" stroke-width="1.2"><title>stulbal-spojka-50-R1-bok-C-noha-CP</title></rect>
<rect x="36.57" y="-373.43" width="40.43" height="40.43" fill="#2d3139" fill-opacity="0.7" stroke="#222" stroke-width="1.2"><title>stulbal-spojka-51-R1-bok-C-noha-CZ</title></rect>
<rect x="723" y="-373.43" width="40.43" height="40.43" fill="#2d3139" fill-opacity="0.7" stroke="#222" stroke-width="1.2"><title>stulbal-spojka-52-R1-bok-D-noha-DP</title></rect>
<rect x="36.57" y="-373.43" width="40.43" height="40.43" fill="#2d3139" fill-opacity="0.7" stroke="#222" stroke-width="1.2"><title>stulbal-spojka-53-R1-bok-D-noha-DZ</title></rect>
<rect x="646.57" y="-408.5" width="40.43" height="37" fill="#2d3139" fill-opacity="0.7" stroke="#222" stroke-width="1.2"><title>stulbal-spojka-54-R1-kolejnice-R1-bok-C</title></rect>
<rect x="646.57" y="-408.5" width="40.43" height="37" fill="#2d3139" fill-opacity="0.7" stroke="#222" stroke-width="1.2"><title>stulbal-spojka-55-R1-kolejnice-R1-bok-D</title></rect>
<rect x="761.5" y="-373.43" width="37" height="40.43" fill="#2d3139" fill-opacity="0.7" stroke="#222" stroke-width="1.2"><title>stulbal-spojka-56-R1-predni-noha-CP</title></rect>
<rect x="761.5" y="-373.43" width="37" height="40.43" fill="#2d3139" fill-opacity="0.7" stroke="#222" stroke-width="1.2"><title>stulbal-spojka-57-R1-predni-noha-DP</title></rect>
<rect x="761.5" y="-693.43" width="37" height="40.43" fill="#2d3139" fill-opacity="0.7" stroke="#222" stroke-width="1.2"><title>stulbal-spojka-58-R2-predni-noha-CP</title></rect>
<rect x="761.5" y="-693.43" width="37" height="40.43" fill="#2d3139" fill-opacity="0.7" stroke="#222" stroke-width="1.2"><title>stulbal-spojka-59-R2-predni-noha-DP</title></rect>
<rect x="1.5" y="-693.43" width="37" height="40.43" fill="#2d3139" fill-opacity="0.7" stroke="#222" stroke-width="1.2"><title>stulbal-spojka-60-R2-zadni-noha-CZ</title></rect>
<rect x="1.5" y="-693.43" width="37" height="40.43" fill="#2d3139" fill-opacity="0.7" stroke="#222" stroke-width="1.2"><title>stulbal-spojka-61-R2-zadni-noha-DZ</title></rect>
<rect x="1.5" y="-1613.43" width="37" height="40.43" fill="#2d3139" fill-opacity="0.7" stroke="#222" stroke-width="1.2"><title>stulbal-spojka-62-zed-horni-noha-BZ</title></rect>
<rect x="1.5" y="-1613.43" width="37" height="40.43" fill="#2d3139" fill-opacity="0.7" stroke="#222" stroke-width="1.2"><title>stulbal-spojka-63-zed-horni-noha-DZ</title></rect>
<rect x="1.5" y="-1453.43" width="37" height="40.43" fill="#2d3139" fill-opacity="0.7" stroke="#222" stroke-width="1.2"><title>stulbal-spojka-64-zed-spodni-noha-BZ</title></rect>
<rect x="1.5" y="-1453.43" width="37" height="40.43" fill="#2d3139" fill-opacity="0.7" stroke="#222" stroke-width="1.2"><title>stulbal-spojka-65-zed-spodni-noha-DZ</title></rect>
<rect x="-10" y="-79" width="60" height="79" fill="#16181b" fill-opacity="0.7" stroke="#222" stroke-width="1.2"><title>stulbal-patka-noha-AZ</title></rect>
<rect x="-10" y="-79" width="60" height="79" fill="#16181b" fill-opacity="0.7" stroke="#222" stroke-width="1.2"><title>stulbal-patka-noha-BZ</title></rect>
<rect x="-10" y="-79" width="60" height="79" fill="#16181b" fill-opacity="0.7" stroke="#222" stroke-width="1.2"><title>stulbal-patka-noha-CZ</title></rect>
<rect x="-10" y="-79" width="60" height="79" fill="#16181b" fill-opacity="0.7" stroke="#222" stroke-width="1.2"><title>stulbal-patka-noha-DZ</title></rect>
<rect x="750" y="-79" width="60" height="79" fill="#16181b" fill-opacity="0.7" stroke="#222" stroke-width="1.2"><title>stulbal-patka-noha-AP</title></rect>
<rect x="750" y="-79" width="60" height="79" fill="#16181b" fill-opacity="0.7" stroke="#222" stroke-width="1.2"><title>stulbal-patka-noha-BP</title></rect>
<rect x="750" y="-79" width="60" height="79" fill="#16181b" fill-opacity="0.7" stroke="#222" stroke-width="1.2"><title>stulbal-patka-noha-CP</title></rect>
<rect x="750" y="-79" width="60" height="79" fill="#16181b" fill-opacity="0.7" stroke="#222" stroke-width="1.2"><title>stulbal-patka-noha-DP</title></rect>
<rect x="537.5" y="-2060" width="85" height="81" fill="#f2d45c" fill-opacity="0.7" stroke="#222" stroke-width="1.2"><title>stulbal-led-1</title></rect>
<g stroke="#b3261e" fill="#b3261e" stroke-width="1.6"><line x1="0" y1="80" x2="800" y2="80"/><line x1="0" y1="66" x2="0" y2="94"/><line x1="800" y1="66" x2="800" y2="94"/><text x="400" y="73" font-size="26" text-anchor="middle" stroke="none">800</text></g>
<g stroke="#b3261e" fill="#b3261e" stroke-width="1.6"><line x1="39.999993324279785" y1="160" x2="760.0000066757202" y2="160"/><line x1="39.999993324279785" y1="146" x2="39.999993324279785" y2="174"/><line x1="760.0000066757202" y1="146" x2="760.0000066757202" y2="174"/><text x="400" y="153" font-size="26" text-anchor="middle" stroke="none">720</text></g>
<g stroke="#b3261e" fill="#b3261e" stroke-width="1.6"><line x1="0" y1="240" x2="650" y2="240"/><line x1="0" y1="226" x2="0" y2="254"/><line x1="650" y1="226" x2="650" y2="254"/><text x="325" y="233" font-size="26" text-anchor="middle" stroke="none">650</text></g>
<g stroke="#b3261e" fill="#b3261e" stroke-width="1.6"><line x1="650" y1="240" x2="800" y2="240"/><line x1="650" y1="226" x2="650" y2="254"/><line x1="800" y1="226" x2="800" y2="254"/><text x="725" y="233" font-size="26" text-anchor="middle" stroke="none">150</text></g>
<g stroke="#b3261e" fill="#b3261e" stroke-width="1.6"><line x1="0" y1="-2189.999976158142" x2="600" y2="-2189.999976158142"/><line x1="0" y1="-2203.999976158142" x2="0" y2="-2175.999976158142"/><line x1="600" y1="-2203.999976158142" x2="600" y2="-2175.999976158142"/><text x="300" y="-2196.999976158142" font-size="26" text-anchor="middle" stroke="none">600</text></g>
<g stroke="#b3261e" fill="#b3261e" stroke-width="1.6"><line x1="39.999993324279785" y1="-1740" x2="346" y2="-1740"/><line x1="39.999993324279785" y1="-1754" x2="39.999993324279785" y2="-1726"/><line x1="346" y1="-1754" x2="346" y2="-1726"/><text x="192.9999966621399" y="-1747" font-size="26" text-anchor="middle" stroke="none">306</text></g>
<g stroke="#b3261e" fill="#b3261e" stroke-width="1.6"><line x1="96" y1="-1820" x2="346" y2="-1820"/><line x1="96" y1="-1834" x2="96" y2="-1806"/><line x1="346" y1="-1834" x2="346" y2="-1806"/><text x="221" y="-1827" font-size="26" text-anchor="middle" stroke="none">250</text></g>
<g stroke="#b3261e" fill="#b3261e" stroke-width="1.6"><line x1="-90" y1="0" x2="-90" y2="-2099.99999332428"/><line x1="-104" y1="0" x2="-76" y2="0"/><line x1="-104" y1="-2099.99999332428" x2="-76" y2="-2099.99999332428"/><text transform="translate(-98,-1049.99999666214) rotate(-90)" font-size="26" text-anchor="middle" stroke="none">2100</text></g>
<g stroke="#b3261e" fill="#b3261e" stroke-width="1.6"><line x1="-170" y1="0" x2="-170" y2="-1489.9999694824219"/><line x1="-184" y1="0" x2="-156" y2="0"/><line x1="-184" y1="-1489.9999694824219" x2="-156" y2="-1489.9999694824219"/><text transform="translate(-178,-744.9999847412109) rotate(-90)" font-size="26" text-anchor="middle" stroke="none">1490</text></g>
<g stroke="#b3261e" fill="#b3261e" stroke-width="1.6"><line x1="-250" y1="0" x2="-250" y2="-800.0000000000001"/><line x1="-264" y1="0" x2="-236" y2="0"/><line x1="-264" y1="-800.0000000000001" x2="-236" y2="-800.0000000000001"/><text transform="translate(-258,-400.00000000000006) rotate(-90)" font-size="26" text-anchor="middle" stroke="none">800</text></g>
<g stroke="#b3261e" fill="#b3261e" stroke-width="1.6"><line x1="890" y1="0" x2="890" y2="-592.0000000000001"/><line x1="876" y1="0" x2="904" y2="0"/><line x1="876" y1="-592.0000000000001" x2="904" y2="-592.0000000000001"/><text transform="translate(882,-296.00000000000006) rotate(-90)" font-size="26" text-anchor="middle" stroke="none">592</text></g>
<g stroke="#b3261e" fill="#b3261e" stroke-width="1.6"><line x1="970" y1="0" x2="970" y2="-104.00000000000007"/><line x1="956" y1="0" x2="984" y2="0"/><line x1="956" y1="-104.00000000000007" x2="984" y2="-104.00000000000007"/><text transform="translate(962,-52.000000000000036) rotate(-90)" font-size="26" text-anchor="middle" stroke="none">104</text></g>
<g stroke="#b3261e" fill="#b3261e" stroke-width="1.6"><line x1="1050" y1="-800.0000000000001" x2="1050" y2="-2060.0000371932983"/><line x1="1036" y1="-800.0000000000001" x2="1064" y2="-800.0000000000001"/><line x1="1036" y1="-2060.0000371932983" x2="1064" y2="-2060.0000371932983"/><text transform="translate(1042,-1430.0000185966492) rotate(-90)" font-size="26" text-anchor="middle" stroke="none">1260</text></g>
<g stroke="#b3261e" fill="#b3261e" stroke-width="1.6"><line x1="1130" y1="0" x2="1130" y2="-46.000000000000114"/><line x1="1116" y1="0" x2="1144" y2="0"/><line x1="1116" y1="-46.000000000000114" x2="1144" y2="-46.000000000000114"/><text transform="translate(1122,-23.000000000000057) rotate(-90)" font-size="26" text-anchor="middle" stroke="none">46</text></g>
<g stroke="#b3261e" fill="#b3261e" stroke-width="1.6"><line x1="1210" y1="0" x2="1210" y2="-120.00003051757808"/><line x1="1196" y1="0" x2="1224" y2="0"/><line x1="1196" y1="-120.00003051757808" x2="1224" y2="-120.00003051757808"/><text transform="translate(1202,-60.00001525878904) rotate(-90)" font-size="26" text-anchor="middle" stroke="none">120</text></g>
</svg>
