<?xml version="1.0" encoding="UTF-8"?>
<svg xmlns="http://www.w3.org/2000/svg" viewBox="-290 -190 2250 1350" width="2025" height="1215" font-family="Arial,Helvetica,sans-serif">
<rect x="-290" y="-190" width="2250" height="1350" fill="#fff"/>
<text x="-280" y="-134" font-size="28.6" font-weight="bold">Stůl balení LIDL - prototyp II (z výkresu) - PŮDORYS (osa X doprava, Z dolů = k přední straně) - kóty NAMĚŘENÉ z Box3 reálné GLB geometrie (mřížka 100 mm, čísla v mm)</text>
<line x1="-200" y1="-190" x2="-200" y2="1160" stroke="#d5dbe1" stroke-width="0.8"/>
<line x1="-100" y1="-190" x2="-100" y2="1160" stroke="#d5dbe1" stroke-width="0.8"/>
<line x1="0" y1="-190" x2="0" y2="1160" stroke="#9aa5b1" stroke-width="1.4"/><text x="4" y="-164" font-size="20.8" fill="#667">0</text>
<line x1="100" y1="-190" x2="100" y2="1160" stroke="#d5dbe1" stroke-width="0.8"/>
<line x1="200" y1="-190" x2="200" y2="1160" stroke="#d5dbe1" stroke-width="0.8"/>
<line x1="300" y1="-190" x2="300" y2="1160" stroke="#d5dbe1" stroke-width="0.8"/>
<line x1="400" y1="-190" x2="400" y2="1160" stroke="#d5dbe1" stroke-width="0.8"/>
<line x1="500" y1="-190" x2="500" y2="1160" stroke="#9aa5b1" stroke-width="1.4"/><text x="504" y="-164" font-size="20.8" fill="#667">500</text>
<line x1="600" y1="-190" x2="600" y2="1160" stroke="#d5dbe1" stroke-width="0.8"/>
<line x1="700" y1="-190" x2="700" y2="1160" stroke="#d5dbe1" stroke-width="0.8"/>
<line x1="800" y1="-190" x2="800" y2="1160" stroke="#d5dbe1" stroke-width="0.8"/>
<line x1="900" y1="-190" x2="900" y2="1160" stroke="#d5dbe1" stroke-width="0.8"/>
<line x1="1000" y1="-190" x2="1000" y2="1160" stroke="#9aa5b1" stroke-width="1.4"/><text x="1004" y="-164" font-size="20.8" fill="#667">1000</text>
<line x1="1100" y1="-190" x2="1100" y2="1160" stroke="#d5dbe1" stroke-width="0.8"/>
<line x1="1200" y1="-190" x2="1200" y2="1160" stroke="#d5dbe1" stroke-width="0.8"/>
<line x1="1300" y1="-190" x2="1300" y2="1160" stroke="#d5dbe1" stroke-width="0.8"/>
<line x1="1400" y1="-190" x2="1400" y2="1160" stroke="#d5dbe1" stroke-width="0.8"/>
<line x1="1500" y1="-190" x2="1500" y2="1160" stroke="#9aa5b1" stroke-width="1.4"/><text x="1504" y="-164" font-size="20.8" fill="#667">1500</text>
<line x1="1600" y1="-190" x2="1600" y2="1160" stroke="#d5dbe1" stroke-width="0.8"/>
<line x1="1700" y1="-190" x2="1700" y2="1160" stroke="#d5dbe1" stroke-width="0.8"/>
<line x1="1800" y1="-190" x2="1800" y2="1160" stroke="#d5dbe1" stroke-width="0.8"/>
<line x1="1900" y1="-190" x2="1900" y2="1160" stroke="#d5dbe1" stroke-width="0.8"/>
<line x1="-290" y1="-100" x2="1960" y2="-100" stroke="#d5dbe1" stroke-width="0.8"/>
<line x1="-290" y1="0" x2="1960" y2="0" stroke="#9aa5b1" stroke-width="1.4"/><text x="-286" y="-4" font-size="20.8" fill="#667">0</text>
<line x1="-290" y1="100" x2="1960" y2="100" stroke="#d5dbe1" stroke-width="0.8"/>
<line x1="-290" y1="200" x2="1960" y2="200" stroke="#d5dbe1" stroke-width="0.8"/>
<line x1="-290" y1="300" x2="1960" y2="300" stroke="#d5dbe1" stroke-width="0.8"/>
<line x1="-290" y1="400" x2="1960" y2="400" stroke="#d5dbe1" stroke-width="0.8"/>
<line x1="-290" y1="500" x2="1960" y2="500" stroke="#9aa5b1" stroke-width="1.4"/><text x="-286" y="496" font-size="20.8" fill="#667">500</text>
<line x1="-290" y1="600" x2="1960" y2="600" stroke="#d5dbe1" stroke-width="0.8"/>
<line x1="-290" y1="700" x2="1960" y2="700" stroke="#d5dbe1" stroke-width="0.8"/>
<line x1="-290" y1="800" x2="1960" y2="800" stroke="#d5dbe1" stroke-width="0.8"/>
<line x1="-290" y1="900" x2="1960" y2="900" stroke="#d5dbe1" stroke-width="0.8"/>
<line x1="-290" y1="1000" x2="1960" y2="1000" stroke="#9aa5b1" stroke-width="1.4"/><text x="-286" y="996" font-size="20.8" fill="#667">1000</text>
<line x1="-290" y1="1100" x2="1960" y2="1100" stroke="#d5dbe1" stroke-width="0.8"/>
<rect x="1040" y="12" width="59.545" height="782" fill="#e8833a" fill-opacity="0.45" stroke="#222" stroke-width="1.2"><title>stulbal-valecka-draha-1</title></rect>
<rect x="1101.045" y="12" width="59.545" height="782" fill="#e8833a" fill-opacity="0.45" stroke="#222" stroke-width="1.2"><title>stulbal-valecka-draha-2</title></rect>
<rect x="1162.091" y="12" width="59.545" height="782" fill="#e8833a" fill-opacity="0.45" stroke="#222" stroke-width="1.2"><title>stulbal-valecka-draha-3</title></rect>
<rect x="1223.136" y="12" width="59.545" height="782" fill="#e8833a" fill-opacity="0.45" stroke="#222" stroke-width="1.2"><title>stulbal-valecka-draha-4</title></rect>
<rect x="1284.182" y="12" width="59.545" height="782" fill="#e8833a" fill-opacity="0.45" stroke="#222" stroke-width="1.2"><title>stulbal-valecka-draha-5</title></rect>
<rect x="1345.227" y="12" width="59.545" height="782" fill="#e8833a" fill-opacity="0.45" stroke="#222" stroke-width="1.2"><title>stulbal-valecka-draha-6</title></rect>
<rect x="1406.273" y="12" width="59.545" height="782" fill="#e8833a" fill-opacity="0.45" stroke="#222" stroke-width="1.2"><title>stulbal-valecka-draha-7</title></rect>
<rect x="1467.318" y="12" width="59.545" height="782" fill="#e8833a" fill-opacity="0.45" stroke="#222" stroke-width="1.2"><title>stulbal-valecka-draha-8</title></rect>
<rect x="1528.364" y="12" width="59.545" height="782" fill="#e8833a" fill-opacity="0.45" stroke="#222" stroke-width="1.2"><title>stulbal-valecka-draha-9</title></rect>
<rect x="1589.409" y="12" width="59.545" height="782" fill="#e8833a" fill-opacity="0.45" stroke="#222" stroke-width="1.2"><title>stulbal-valecka-draha-10</title></rect>
<rect x="1650.455" y="12" width="59.545" height="782" fill="#e8833a" fill-opacity="0.45" stroke="#222" stroke-width="1.2"><title>stulbal-valecka-draha-11</title></rect>
<rect x="1040" y="794" width="670" height="6" fill="#b8bec5" fill-opacity="0.45" stroke="#222" stroke-width="1.2"><title>stulbal-celni-desticka</title></rect>
<rect x="1132" y="610" width="30" height="40" fill="#d6504f" fill-opacity="0.45" stroke="#222" stroke-width="1.2"><title>stulbal-kovani-L</title></rect>
<rect x="1586" y="610" width="30" height="40" fill="#d6504f" fill-opacity="0.45" stroke="#222" stroke-width="1.2"><title>stulbal-kovani-P</title></rect>
<rect x="520" y="80" width="30" height="16" fill="#3f8fd2" fill-opacity="0.45" stroke="#222" stroke-width="1.2"><title>stulbal-rameno-podstava</title></rect>
<rect x="525" y="96" width="20" height="244" fill="#3f8fd2" fill-opacity="0.45" stroke="#222" stroke-width="1.2"><title>stulbal-rameno-vodorovne</title></rect>
<rect x="485" y="340" width="100" height="6" fill="#3f8fd2" fill-opacity="0.45" stroke="#222" stroke-width="1.2"><title>stulbal-rameno-hlava</title></rect>
<rect x="430" y="0" width="40" height="60" fill="#8f63cf" fill-opacity="0.45" stroke="#222" stroke-width="1.2"><title>stulbal-vypinac</title></rect>
<rect x="40" y="0" width="350" height="800" fill="#9aa0a6" fill-opacity="0.55" stroke="#222" stroke-width="1.2"><title>stulbal-police-1</title></rect>
<rect x="40" y="0" width="350" height="800" fill="#9aa0a6" fill-opacity="0.55" stroke="#222" stroke-width="1.2"><title>stulbal-police-2</title></rect>
<rect x="40" y="0" width="350" height="800" fill="#9aa0a6" fill-opacity="0.55" stroke="#222" stroke-width="1.2"><title>stulbal-police-3</title></rect>
<rect x="430" y="0" width="570" height="800" fill="#9aa0a6" fill-opacity="0.55" stroke="#222" stroke-width="1.2"><title>stulbal-police-S</title></rect>
<rect x="430" y="0" width="570" height="650" fill="#9aa0a6" fill-opacity="0.55" stroke="#222" stroke-width="1.2"><title>stulbal-deska-spodni</title></rect>
<rect x="430" y="0" width="610" height="800" fill="#9aa0a6" fill-opacity="0.55" stroke="#222" stroke-width="1.2"><title>stulbal-deska-stolu</title></rect>
<rect x="0" y="0" width="40" height="40" fill="#c3c8ce" fill-opacity="0.7" stroke="#222" stroke-width="1.2"><title>stulbal-noha-AZ</title></rect>
<rect x="390" y="0" width="40" height="40" fill="#c3c8ce" fill-opacity="0.7" stroke="#222" stroke-width="1.2"><title>stulbal-noha-BZ</title></rect>
<rect x="1000" y="0" width="40" height="40" fill="#c3c8ce" fill-opacity="0.7" stroke="#222" stroke-width="1.2"><title>stulbal-noha-CZ</title></rect>
<rect x="1710" y="0" width="40" height="40" fill="#c3c8ce" fill-opacity="0.7" stroke="#222" stroke-width="1.2"><title>stulbal-noha-DZ</title></rect>
<rect x="0" y="760" width="40" height="40" fill="#c3c8ce" fill-opacity="0.7" stroke="#222" stroke-width="1.2"><title>stulbal-noha-AP</title></rect>
<rect x="390" y="760" width="40" height="40" fill="#c3c8ce" fill-opacity="0.7" stroke="#222" stroke-width="1.2"><title>stulbal-noha-BP</title></rect>
<rect x="1000" y="760" width="40" height="40" fill="#c3c8ce" fill-opacity="0.7" stroke="#222" stroke-width="1.2"><title>stulbal-noha-CP</title></rect>
<rect x="1710" y="760" width="40" height="40" fill="#c3c8ce" fill-opacity="0.7" stroke="#222" stroke-width="1.2"><title>stulbal-noha-DP</title></rect>
<rect x="40" y="0" width="350" height="40" fill="#c3c8ce" fill-opacity="0.7" stroke="#222" stroke-width="1.2"><title>stulbal-LB-zadni</title></rect>
<rect x="40" y="760" width="350" height="40" fill="#c3c8ce" fill-opacity="0.7" stroke="#222" stroke-width="1.2"><title>stulbal-LB-predni</title></rect>
<rect x="0" y="40" width="40" height="720" fill="#c3c8ce" fill-opacity="0.7" stroke="#222" stroke-width="1.2"><title>stulbal-LB-leva</title></rect>
<rect x="390" y="40" width="40" height="720" fill="#c3c8ce" fill-opacity="0.7" stroke="#222" stroke-width="1.2"><title>stulbal-LB-prava</title></rect>
<rect x="40" y="0" width="350" height="40" fill="#c3c8ce" fill-opacity="0.7" stroke="#222" stroke-width="1.2"><title>stulbal-LM-zadni</title></rect>
<rect x="40" y="760" width="350" height="40" fill="#c3c8ce" fill-opacity="0.7" stroke="#222" stroke-width="1.2"><title>stulbal-LM-predni</title></rect>
<rect x="0" y="40" width="40" height="720" fill="#c3c8ce" fill-opacity="0.7" stroke="#222" stroke-width="1.2"><title>stulbal-LM-leva</title></rect>
<rect x="390" y="40" width="40" height="720" fill="#c3c8ce" fill-opacity="0.7" stroke="#222" stroke-width="1.2"><title>stulbal-LM-prava</title></rect>
<rect x="40" y="0" width="350" height="40" fill="#c3c8ce" fill-opacity="0.7" stroke="#222" stroke-width="1.2"><title>stulbal-LT-zadni</title></rect>
<rect x="40" y="760" width="350" height="40" fill="#c3c8ce" fill-opacity="0.7" stroke="#222" stroke-width="1.2"><title>stulbal-LT-predni</title></rect>
<rect x="0" y="40" width="40" height="720" fill="#c3c8ce" fill-opacity="0.7" stroke="#222" stroke-width="1.2"><title>stulbal-LT-leva</title></rect>
<rect x="390" y="40" width="40" height="720" fill="#c3c8ce" fill-opacity="0.7" stroke="#222" stroke-width="1.2"><title>stulbal-LT-prava</title></rect>
<rect x="390" y="40" width="40" height="720" fill="#c3c8ce" fill-opacity="0.7" stroke="#222" stroke-width="1.2"><title>stulbal-MB-bok-B</title></rect>
<rect x="1000" y="40" width="40" height="720" fill="#c3c8ce" fill-opacity="0.7" stroke="#222" stroke-width="1.2"><title>stulbal-MB-bok-C</title></rect>
<rect x="430" y="0" width="570" height="40" fill="#c3c8ce" fill-opacity="0.7" stroke="#222" stroke-width="1.2"><title>stulbal-MB-zadni</title></rect>
<rect x="430" y="610" width="570" height="40" fill="#c3c8ce" fill-opacity="0.7" stroke="#222" stroke-width="1.2"><title>stulbal-MB-kolejnice</title></rect>
<rect x="430" y="0" width="570" height="40" fill="#c3c8ce" fill-opacity="0.7" stroke="#222" stroke-width="1.2"><title>stulbal-MM-zadni</title></rect>
<rect x="430" y="760" width="570" height="40" fill="#c3c8ce" fill-opacity="0.7" stroke="#222" stroke-width="1.2"><title>stulbal-MM-predni</title></rect>
<rect x="1000" y="40" width="40" height="720" fill="#c3c8ce" fill-opacity="0.7" stroke="#222" stroke-width="1.2"><title>stulbal-MM-prava</title></rect>
<rect x="1040" y="0" width="670" height="40" fill="#c3c8ce" fill-opacity="0.7" stroke="#222" stroke-width="1.2"><title>stulbal-R0-zadni</title></rect>
<rect x="1040" y="760" width="670" height="40" fill="#c3c8ce" fill-opacity="0.7" stroke="#222" stroke-width="1.2"><title>stulbal-R0-predni</title></rect>
<rect x="1710" y="40" width="40" height="720" fill="#c3c8ce" fill-opacity="0.7" stroke="#222" stroke-width="1.2"><title>stulbal-R0-prava</title></rect>
<rect x="1000" y="40" width="40" height="720" fill="#c3c8ce" fill-opacity="0.7" stroke="#222" stroke-width="1.2"><title>stulbal-R1-bok-C</title></rect>
<rect x="1710" y="40" width="40" height="720" fill="#c3c8ce" fill-opacity="0.7" stroke="#222" stroke-width="1.2"><title>stulbal-R1-bok-D</title></rect>
<rect x="1040" y="760" width="670" height="40" fill="#c3c8ce" fill-opacity="0.7" stroke="#222" stroke-width="1.2"><title>stulbal-R1-predni</title></rect>
<rect x="1040" y="610" width="670" height="40" fill="#c3c8ce" fill-opacity="0.7" stroke="#222" stroke-width="1.2"><title>stulbal-R1-kolejnice</title></rect>
<rect x="1040" y="0" width="670" height="40" fill="#c3c8ce" fill-opacity="0.7" stroke="#222" stroke-width="1.2"><title>stulbal-R2-zadni</title></rect>
<rect x="1040" y="760" width="670" height="40" fill="#c3c8ce" fill-opacity="0.7" stroke="#222" stroke-width="1.2"><title>stulbal-R2-predni</title></rect>
<rect x="1710" y="40" width="40" height="720" fill="#c3c8ce" fill-opacity="0.7" stroke="#222" stroke-width="1.2"><title>stulbal-D-bok-stul</title></rect>
<rect x="0" y="0" width="40" height="600" fill="#c3c8ce" fill-opacity="0.7" stroke="#222" stroke-width="1.2"><title>stulbal-horni-bok-L</title></rect>
<rect x="1710" y="0" width="40" height="600" fill="#c3c8ce" fill-opacity="0.7" stroke="#222" stroke-width="1.2"><title>stulbal-horni-bok-P</title></rect>
<rect x="40" y="0" width="1670" height="40" fill="#c3c8ce" fill-opacity="0.7" stroke="#222" stroke-width="1.2"><title>stulbal-horni-zadni</title></rect>
<rect x="40" y="560" width="1670" height="40" fill="#c3c8ce" fill-opacity="0.7" stroke="#222" stroke-width="1.2"><title>stulbal-horni-predni</title></rect>
<rect x="430" y="0" width="1280" height="40" fill="#c3c8ce" fill-opacity="0.7" stroke="#222" stroke-width="1.2"><title>stulbal-zed-spodni</title></rect>
<rect x="430" y="0" width="1280" height="40" fill="#c3c8ce" fill-opacity="0.7" stroke="#222" stroke-width="1.2"><title>stulbal-zed-horni</title></rect>
<rect x="1255" y="40" width="40" height="40" fill="#c3c8ce" fill-opacity="0.7" stroke="#222" stroke-width="1.2"><title>stulbal-posuvny-1</title></rect>
<rect x="1460" y="40" width="40" height="40" fill="#c3c8ce" fill-opacity="0.7" stroke="#222" stroke-width="1.2"><title>stulbal-posuvny-2</title></rect>
<rect x="515" y="40" width="40" height="40" fill="#c3c8ce" fill-opacity="0.7" stroke="#222" stroke-width="1.2"><title>stulbal-rameno-sloup</title></rect>
<rect x="40" y="1.5" width="37" height="37" fill="#9aa3b0" fill-opacity="0.7" stroke="#222" stroke-width="1.2"><title>stulbal-drzak-police-1-noha-AZ</title></rect>
<rect x="353" y="1.5" width="37" height="37" fill="#9aa3b0" fill-opacity="0.7" stroke="#222" stroke-width="1.2"><title>stulbal-drzak-police-1-noha-BZ</title></rect>
<rect x="40" y="761.5" width="37" height="37" fill="#9aa3b0" fill-opacity="0.7" stroke="#222" stroke-width="1.2"><title>stulbal-drzak-police-1-noha-AP</title></rect>
<rect x="353" y="761.5" width="37" height="37" fill="#9aa3b0" fill-opacity="0.7" stroke="#222" stroke-width="1.2"><title>stulbal-drzak-police-1-noha-BP</title></rect>
<rect x="40" y="1.5" width="37" height="37" fill="#9aa3b0" fill-opacity="0.7" stroke="#222" stroke-width="1.2"><title>stulbal-drzak-police-2-noha-AZ</title></rect>
<rect x="353" y="1.5" width="37" height="37" fill="#9aa3b0" fill-opacity="0.7" stroke="#222" stroke-width="1.2"><title>stulbal-drzak-police-2-noha-BZ</title></rect>
<rect x="40" y="761.5" width="37" height="37" fill="#9aa3b0" fill-opacity="0.7" stroke="#222" stroke-width="1.2"><title>stulbal-drzak-police-2-noha-AP</title></rect>
<rect x="353" y="761.5" width="37" height="37" fill="#9aa3b0" fill-opacity="0.7" stroke="#222" stroke-width="1.2"><title>stulbal-drzak-police-2-noha-BP</title></rect>
<rect x="40" y="1.5" width="37" height="37" fill="#9aa3b0" fill-opacity="0.7" stroke="#222" stroke-width="1.2"><title>stulbal-drzak-police-3-noha-AZ</title></rect>
<rect x="353" y="1.5" width="37" height="37" fill="#9aa3b0" fill-opacity="0.7" stroke="#222" stroke-width="1.2"><title>stulbal-drzak-police-3-noha-BZ</title></rect>
<rect x="40" y="761.5" width="37" height="37" fill="#9aa3b0" fill-opacity="0.7" stroke="#222" stroke-width="1.2"><title>stulbal-drzak-police-3-noha-AP</title></rect>
<rect x="353" y="761.5" width="37" height="37" fill="#9aa3b0" fill-opacity="0.7" stroke="#222" stroke-width="1.2"><title>stulbal-drzak-police-3-noha-BP</title></rect>
<rect x="430" y="1.5" width="37" height="37" fill="#9aa3b0" fill-opacity="0.7" stroke="#222" stroke-width="1.2"><title>stulbal-drzak-police-S-noha-BZ</title></rect>
<rect x="963" y="1.5" width="37" height="37" fill="#9aa3b0" fill-opacity="0.7" stroke="#222" stroke-width="1.2"><title>stulbal-drzak-police-S-noha-CZ</title></rect>
<rect x="430" y="761.5" width="37" height="37" fill="#9aa3b0" fill-opacity="0.7" stroke="#222" stroke-width="1.2"><title>stulbal-drzak-police-S-noha-BP</title></rect>
<rect x="963" y="761.5" width="37" height="37" fill="#9aa3b0" fill-opacity="0.7" stroke="#222" stroke-width="1.2"><title>stulbal-drzak-police-S-noha-CP</title></rect>
<rect x="1711.5" y="723" width="37" height="40.43" fill="#2d3139" fill-opacity="0.7" stroke="#222" stroke-width="1.2"><title>stulbal-spojka-01-D-bok-stul-noha-DP</title></rect>
<rect x="1711.5" y="36.57" width="37" height="40.43" fill="#2d3139" fill-opacity="0.7" stroke="#222" stroke-width="1.2"><title>stulbal-spojka-02-D-bok-stul-noha-DZ</title></rect>
<rect x="36.57" y="523" width="40.43" height="40.43" fill="#2d3139" fill-opacity="0.7" stroke="#222" stroke-width="1.2"><title>stulbal-spojka-03-horni-predni-horni-bok-L</title></rect>
<rect x="1673" y="523" width="40.43" height="40.43" fill="#2d3139" fill-opacity="0.7" stroke="#222" stroke-width="1.2"><title>stulbal-spojka-04-horni-predni-horni-bok-P</title></rect>
<rect x="36.57" y="36.57" width="40.43" height="40.43" fill="#2d3139" fill-opacity="0.7" stroke="#222" stroke-width="1.2"><title>stulbal-spojka-05-horni-zadni-horni-bok-L</title></rect>
<rect x="1673" y="36.57" width="40.43" height="40.43" fill="#2d3139" fill-opacity="0.7" stroke="#222" stroke-width="1.2"><title>stulbal-spojka-06-horni-zadni-horni-bok-P</title></rect>
<rect x="1.5" y="723" width="37" height="40.43" fill="#2d3139" fill-opacity="0.7" stroke="#222" stroke-width="1.2"><title>stulbal-spojka-07-LB-leva-noha-AP</title></rect>
<rect x="1.5" y="36.57" width="37" height="40.43" fill="#2d3139" fill-opacity="0.7" stroke="#222" stroke-width="1.2"><title>stulbal-spojka-08-LB-leva-noha-AZ</title></rect>
<rect x="391.5" y="723" width="37" height="40.43" fill="#2d3139" fill-opacity="0.7" stroke="#222" stroke-width="1.2"><title>stulbal-spojka-09-LB-prava-noha-BP</title></rect>
<rect x="391.5" y="36.57" width="37" height="40.43" fill="#2d3139" fill-opacity="0.7" stroke="#222" stroke-width="1.2"><title>stulbal-spojka-10-LB-prava-noha-BZ</title></rect>
<rect x="36.57" y="761.5" width="40.43" height="37" fill="#2d3139" fill-opacity="0.7" stroke="#222" stroke-width="1.2"><title>stulbal-spojka-11-LB-predni-noha-AP</title></rect>
<rect x="353" y="761.5" width="40.43" height="37" fill="#2d3139" fill-opacity="0.7" stroke="#222" stroke-width="1.2"><title>stulbal-spojka-12-LB-predni-noha-BP</title></rect>
<rect x="36.57" y="1.5" width="40.43" height="37" fill="#2d3139" fill-opacity="0.7" stroke="#222" stroke-width="1.2"><title>stulbal-spojka-13-LB-zadni-noha-AZ</title></rect>
<rect x="353" y="1.5" width="40.43" height="37" fill="#2d3139" fill-opacity="0.7" stroke="#222" stroke-width="1.2"><title>stulbal-spojka-14-LB-zadni-noha-BZ</title></rect>
<rect x="1.5" y="723" width="37" height="40.43" fill="#2d3139" fill-opacity="0.7" stroke="#222" stroke-width="1.2"><title>stulbal-spojka-15-LM-leva-noha-AP</title></rect>
<rect x="1.5" y="36.57" width="37" height="40.43" fill="#2d3139" fill-opacity="0.7" stroke="#222" stroke-width="1.2"><title>stulbal-spojka-16-LM-leva-noha-AZ</title></rect>
<rect x="391.5" y="723" width="37" height="40.43" fill="#2d3139" fill-opacity="0.7" stroke="#222" stroke-width="1.2"><title>stulbal-spojka-17-LM-prava-noha-BP</title></rect>
<rect x="391.5" y="36.57" width="37" height="40.43" fill="#2d3139" fill-opacity="0.7" stroke="#222" stroke-width="1.2"><title>stulbal-spojka-18-LM-prava-noha-BZ</title></rect>
<rect x="36.57" y="761.5" width="40.43" height="37" fill="#2d3139" fill-opacity="0.7" stroke="#222" stroke-width="1.2"><title>stulbal-spojka-19-LM-predni-noha-AP</title></rect>
<rect x="353" y="761.5" width="40.43" height="37" fill="#2d3139" fill-opacity="0.7" stroke="#222" stroke-width="1.2"><title>stulbal-spojka-20-LM-predni-noha-BP</title></rect>
<rect x="36.57" y="1.5" width="40.43" height="37" fill="#2d3139" fill-opacity="0.7" stroke="#222" stroke-width="1.2"><title>stulbal-spojka-21-LM-zadni-noha-AZ</title></rect>
<rect x="353" y="1.5" width="40.43" height="37" fill="#2d3139" fill-opacity="0.7" stroke="#222" stroke-width="1.2"><title>stulbal-spojka-22-LM-zadni-noha-BZ</title></rect>
<rect x="1.5" y="723" width="37" height="40.43" fill="#2d3139" fill-opacity="0.7" stroke="#222" stroke-width="1.2"><title>stulbal-spojka-23-LT-leva-noha-AP</title></rect>
<rect x="1.5" y="36.57" width="37" height="40.43" fill="#2d3139" fill-opacity="0.7" stroke="#222" stroke-width="1.2"><title>stulbal-spojka-24-LT-leva-noha-AZ</title></rect>
<rect x="391.5" y="723" width="37" height="40.43" fill="#2d3139" fill-opacity="0.7" stroke="#222" stroke-width="1.2"><title>stulbal-spojka-25-LT-prava-noha-BP</title></rect>
<rect x="391.5" y="36.57" width="37" height="40.43" fill="#2d3139" fill-opacity="0.7" stroke="#222" stroke-width="1.2"><title>stulbal-spojka-26-LT-prava-noha-BZ</title></rect>
<rect x="36.57" y="761.5" width="40.43" height="37" fill="#2d3139" fill-opacity="0.7" stroke="#222" stroke-width="1.2"><title>stulbal-spojka-27-LT-predni-noha-AP</title></rect>
<rect x="353" y="761.5" width="40.43" height="37" fill="#2d3139" fill-opacity="0.7" stroke="#222" stroke-width="1.2"><title>stulbal-spojka-28-LT-predni-noha-BP</title></rect>
<rect x="36.57" y="1.5" width="40.43" height="37" fill="#2d3139" fill-opacity="0.7" stroke="#222" stroke-width="1.2"><title>stulbal-spojka-29-LT-zadni-noha-AZ</title></rect>
<rect x="353" y="1.5" width="40.43" height="37" fill="#2d3139" fill-opacity="0.7" stroke="#222" stroke-width="1.2"><title>stulbal-spojka-30-LT-zadni-noha-BZ</title></rect>
<rect x="1001.5" y="723" width="37" height="40.43" fill="#2d3139" fill-opacity="0.7" stroke="#222" stroke-width="1.2"><title>stulbal-spojka-31-MB-bok-C-noha-CP</title></rect>
<rect x="1001.5" y="36.57" width="37" height="40.43" fill="#2d3139" fill-opacity="0.7" stroke="#222" stroke-width="1.2"><title>stulbal-spojka-32-MB-bok-C-noha-CZ</title></rect>
<rect x="426.57" y="646.57" width="40.43" height="40.43" fill="#2d3139" fill-opacity="0.7" stroke="#222" stroke-width="1.2"><title>stulbal-spojka-33-MB-kolejnice-MB-bok-B</title></rect>
<rect x="963" y="646.57" width="40.43" height="40.43" fill="#2d3139" fill-opacity="0.7" stroke="#222" stroke-width="1.2"><title>stulbal-spojka-34-MB-kolejnice-MB-bok-C</title></rect>
<rect x="1001.5" y="723" width="37" height="40.43" fill="#2d3139" fill-opacity="0.7" stroke="#222" stroke-width="1.2"><title>stulbal-spojka-35-MM-prava-noha-CP</title></rect>
<rect x="1001.5" y="36.57" width="37" height="40.43" fill="#2d3139" fill-opacity="0.7" stroke="#222" stroke-width="1.2"><title>stulbal-spojka-36-MM-prava-noha-CZ</title></rect>
<rect x="426.57" y="761.5" width="40.43" height="37" fill="#2d3139" fill-opacity="0.7" stroke="#222" stroke-width="1.2"><title>stulbal-spojka-37-MM-predni-noha-BP</title></rect>
<rect x="963" y="761.5" width="40.43" height="37" fill="#2d3139" fill-opacity="0.7" stroke="#222" stroke-width="1.2"><title>stulbal-spojka-38-MM-predni-noha-CP</title></rect>
<rect x="426.57" y="1.5" width="40.43" height="37" fill="#2d3139" fill-opacity="0.7" stroke="#222" stroke-width="1.2"><title>stulbal-spojka-39-MM-zadni-noha-BZ</title></rect>
<rect x="963" y="1.5" width="40.43" height="37" fill="#2d3139" fill-opacity="0.7" stroke="#222" stroke-width="1.2"><title>stulbal-spojka-40-MM-zadni-noha-CZ</title></rect>
<rect x="1.5" y="36.57" width="37" height="40.43" fill="#2d3139" fill-opacity="0.7" stroke="#222" stroke-width="1.2"><title>stulbal-spojka-41-noha-AZ-horni-bok-L</title></rect>
<rect x="426.57" y="1.5" width="40.43" height="37" fill="#2d3139" fill-opacity="0.7" stroke="#222" stroke-width="1.2"><title>stulbal-spojka-42-noha-BZ-horni-zadni</title></rect>
<rect x="1711.5" y="36.57" width="37" height="40.43" fill="#2d3139" fill-opacity="0.7" stroke="#222" stroke-width="1.2"><title>stulbal-spojka-43-noha-DZ-horni-bok-P</title></rect>
<rect x="1711.5" y="723" width="37" height="40.43" fill="#2d3139" fill-opacity="0.7" stroke="#222" stroke-width="1.2"><title>stulbal-spojka-44-R0-prava-noha-DP</title></rect>
<rect x="1711.5" y="36.57" width="37" height="40.43" fill="#2d3139" fill-opacity="0.7" stroke="#222" stroke-width="1.2"><title>stulbal-spojka-45-R0-prava-noha-DZ</title></rect>
<rect x="1036.57" y="761.5" width="40.43" height="37" fill="#2d3139" fill-opacity="0.7" stroke="#222" stroke-width="1.2"><title>stulbal-spojka-46-R0-predni-noha-CP</title></rect>
<rect x="1673" y="761.5" width="40.43" height="37" fill="#2d3139" fill-opacity="0.7" stroke="#222" stroke-width="1.2"><title>stulbal-spojka-47-R0-predni-noha-DP</title></rect>
<rect x="1036.57" y="1.5" width="40.43" height="37" fill="#2d3139" fill-opacity="0.7" stroke="#222" stroke-width="1.2"><title>stulbal-spojka-48-R0-zadni-noha-CZ</title></rect>
<rect x="1673" y="1.5" width="40.43" height="37" fill="#2d3139" fill-opacity="0.7" stroke="#222" stroke-width="1.2"><title>stulbal-spojka-49-R0-zadni-noha-DZ</title></rect>
<rect x="1001.5" y="723" width="37" height="40.43" fill="#2d3139" fill-opacity="0.7" stroke="#222" stroke-width="1.2"><title>stulbal-spojka-50-R1-bok-C-noha-CP</title></rect>
<rect x="1001.5" y="36.57" width="37" height="40.43" fill="#2d3139" fill-opacity="0.7" stroke="#222" stroke-width="1.2"><title>stulbal-spojka-51-R1-bok-C-noha-CZ</title></rect>
<rect x="1711.5" y="723" width="37" height="40.43" fill="#2d3139" fill-opacity="0.7" stroke="#222" stroke-width="1.2"><title>stulbal-spojka-52-R1-bok-D-noha-DP</title></rect>
<rect x="1711.5" y="36.57" width="37" height="40.43" fill="#2d3139" fill-opacity="0.7" stroke="#222" stroke-width="1.2"><title>stulbal-spojka-53-R1-bok-D-noha-DZ</title></rect>
<rect x="1036.57" y="646.57" width="40.43" height="40.43" fill="#2d3139" fill-opacity="0.7" stroke="#222" stroke-width="1.2"><title>stulbal-spojka-54-R1-kolejnice-R1-bok-C</title></rect>
<rect x="1673" y="646.57" width="40.43" height="40.43" fill="#2d3139" fill-opacity="0.7" stroke="#222" stroke-width="1.2"><title>stulbal-spojka-55-R1-kolejnice-R1-bok-D</title></rect>
<rect x="1036.57" y="761.5" width="40.43" height="37" fill="#2d3139" fill-opacity="0.7" stroke="#222" stroke-width="1.2"><title>stulbal-spojka-56-R1-predni-noha-CP</title></rect>
<rect x="1673" y="761.5" width="40.43" height="37" fill="#2d3139" fill-opacity="0.7" stroke="#222" stroke-width="1.2"><title>stulbal-spojka-57-R1-predni-noha-DP</title></rect>
<rect x="1036.57" y="761.5" width="40.43" height="37" fill="#2d3139" fill-opacity="0.7" stroke="#222" stroke-width="1.2"><title>stulbal-spojka-58-R2-predni-noha-CP</title></rect>
<rect x="1673" y="761.5" width="40.43" height="37" fill="#2d3139" fill-opacity="0.7" stroke="#222" stroke-width="1.2"><title>stulbal-spojka-59-R2-predni-noha-DP</title></rect>
<rect x="1036.57" y="1.5" width="40.43" height="37" fill="#2d3139" fill-opacity="0.7" stroke="#222" stroke-width="1.2"><title>stulbal-spojka-60-R2-zadni-noha-CZ</title></rect>
<rect x="1673" y="1.5" width="40.43" height="37" fill="#2d3139" fill-opacity="0.7" stroke="#222" stroke-width="1.2"><title>stulbal-spojka-61-R2-zadni-noha-DZ</title></rect>
<rect x="426.57" y="1.5" width="40.43" height="37" fill="#2d3139" fill-opacity="0.7" stroke="#222" stroke-width="1.2"><title>stulbal-spojka-62-zed-horni-noha-BZ</title></rect>
<rect x="1673" y="1.5" width="40.43" height="37" fill="#2d3139" fill-opacity="0.7" stroke="#222" stroke-width="1.2"><title>stulbal-spojka-63-zed-horni-noha-DZ</title></rect>
<rect x="426.57" y="1.5" width="40.43" height="37" fill="#2d3139" fill-opacity="0.7" stroke="#222" stroke-width="1.2"><title>stulbal-spojka-64-zed-spodni-noha-BZ</title></rect>
<rect x="1673" y="1.5" width="40.43" height="37" fill="#2d3139" fill-opacity="0.7" stroke="#222" stroke-width="1.2"><title>stulbal-spojka-65-zed-spodni-noha-DZ</title></rect>
<rect x="-10" y="-10" width="60" height="60" fill="#16181b" fill-opacity="0.7" stroke="#222" stroke-width="1.2"><title>stulbal-patka-noha-AZ</title></rect>
<rect x="380" y="-10" width="60" height="60" fill="#16181b" fill-opacity="0.7" stroke="#222" stroke-width="1.2"><title>stulbal-patka-noha-BZ</title></rect>
<rect x="990" y="-10" width="60" height="60" fill="#16181b" fill-opacity="0.7" stroke="#222" stroke-width="1.2"><title>stulbal-patka-noha-CZ</title></rect>
<rect x="1700" y="-10" width="60" height="60" fill="#16181b" fill-opacity="0.7" stroke="#222" stroke-width="1.2"><title>stulbal-patka-noha-DZ</title></rect>
<rect x="-10" y="750" width="60" height="60" fill="#16181b" fill-opacity="0.7" stroke="#222" stroke-width="1.2"><title>stulbal-patka-noha-AP</title></rect>
<rect x="380" y="750" width="60" height="60" fill="#16181b" fill-opacity="0.7" stroke="#222" stroke-width="1.2"><title>stulbal-patka-noha-BP</title></rect>
<rect x="990" y="750" width="60" height="60" fill="#16181b" fill-opacity="0.7" stroke="#222" stroke-width="1.2"><title>stulbal-patka-noha-CP</title></rect>
<rect x="1700" y="750" width="60" height="60" fill="#16181b" fill-opacity="0.7" stroke="#222" stroke-width="1.2"><title>stulbal-patka-noha-DP</title></rect>
<rect x="251.5" y="537.5" width="1247" height="85" fill="#f2d45c" fill-opacity="0.7" stroke="#222" stroke-width="1.2"><title>stulbal-led-1</title></rect>
<g stroke="#b3261e" fill="#b3261e" stroke-width="1.6"><line x1="0" y1="880" x2="429.9999694824219" y2="880"/><line x1="0" y1="866" x2="0" y2="894"/><line x1="429.9999694824219" y1="866" x2="429.9999694824219" y2="894"/><text x="214.99998474121094" y="873" font-size="26" text-anchor="middle" stroke="none">430</text></g>
<g stroke="#b3261e" fill="#b3261e" stroke-width="1.6"><line x1="429.9999694824219" y1="880" x2="1039.9999694824219" y2="880"/><line x1="429.9999694824219" y1="866" x2="429.9999694824219" y2="894"/><line x1="1039.9999694824219" y1="866" x2="1039.9999694824219" y2="894"/><text x="734.9999694824219" y="873" font-size="26" text-anchor="middle" stroke="none">610</text></g>
<g stroke="#b3261e" fill="#b3261e" stroke-width="1.6"><line x1="1039.9999694824219" y1="880" x2="1749.9999694824219" y2="880"/><line x1="1039.9999694824219" y1="866" x2="1039.9999694824219" y2="894"/><line x1="1749.9999694824219" y1="866" x2="1749.9999694824219" y2="894"/><text x="1394.9999694824219" y="873" font-size="26" text-anchor="middle" stroke="none">710</text></g>
<g stroke="#b3261e" fill="#b3261e" stroke-width="1.6"><line x1="0" y1="960" x2="1749.9999694824219" y2="960"/><line x1="0" y1="946" x2="0" y2="974"/><line x1="1749.9999694824219" y1="946" x2="1749.9999694824219" y2="974"/><text x="874.9999847412109" y="953" font-size="26" text-anchor="middle" stroke="none">1750</text></g>
<g stroke="#b3261e" fill="#b3261e" stroke-width="1.6"><line x1="1040" y1="1040" x2="1710" y2="1040"/><line x1="1040" y1="1026" x2="1040" y2="1054"/><line x1="1710" y1="1026" x2="1710" y2="1054"/><text x="1375" y="1033" font-size="26" text-anchor="middle" stroke="none">670</text></g>
<g stroke="#b3261e" fill="#b3261e" stroke-width="1.6"><line x1="-90" y1="0" x2="-90" y2="800"/><line x1="-104" y1="0" x2="-76" y2="0"/><line x1="-104" y1="800" x2="-76" y2="800"/><text transform="translate(-98,400) rotate(-90)" font-size="26" text-anchor="middle" stroke="none">800</text></g>
<g stroke="#b3261e" fill="#b3261e" stroke-width="1.6"><line x1="1840" y1="12" x2="1840" y2="794"/><line x1="1826" y1="12" x2="1854" y2="12"/><line x1="1826" y1="794" x2="1854" y2="794"/><text transform="translate(1832,403) rotate(-90)" font-size="26" text-anchor="middle" stroke="none">782</text></g>
<g stroke="#b3261e" fill="#b3261e" stroke-width="1.6"><line x1="-170" y1="0" x2="-170" y2="600"/><line x1="-184" y1="0" x2="-156" y2="0"/><line x1="-184" y1="600" x2="-156" y2="600"/><text transform="translate(-178,300) rotate(-90)" font-size="26" text-anchor="middle" stroke="none">600</text></g>
<g stroke="#b3261e" fill="#b3261e" stroke-width="1.6"><line x1="445" y1="39.999993324279785" x2="445" y2="346"/><line x1="431" y1="39.999993324279785" x2="459" y2="39.999993324279785"/><line x1="431" y1="346" x2="459" y2="346"/><text transform="translate(437,192.9999966621399) rotate(-90)" font-size="26" text-anchor="middle" stroke="none">306</text></g>
</svg>
